<?xml version="1.0" standalone="no"?>
<!DOCTYPE svg PUBLIC "-//W3C//DTD SVG 20010904//EN"
 "http://www.w3.org/TR/2001/REC-SVG-20010904/DTD/svg10.dtd">
<svg version="1.0" xmlns="http://www.w3.org/2000/svg"
 width="640.000000pt" height="640.000000pt" viewBox="0 0 640.000000 640.000000"
 preserveAspectRatio="xMidYMid meet">

<g transform="translate(0.000000,640.000000) scale(0.100000,-0.100000)"
fill="#000000" stroke="none">
<path d="M2885 5290 c-929 -141 -1658 -881 -1780 -1808 -17 -131 -20 -410 -5
-532 72 -575 369 -1093 825 -1436 220 -165 461 -282 725 -353 170 -45 285 -61
480 -68 359 -11 666 53 990 208 198 95 319 175 475 313 369 328 601 746 691
1241 22 121 30 424 15 565 -34 322 -131 605 -310 900 -24 41 -48 80 -53 85
-254 328 -448 500 -758 668 -189 102 -472 191 -706 222 -158 21 -435 18 -589
-5z m473 -54 c310 -15 704 -150 981 -338 353 -239 638 -600 777 -985 85 -235
123 -456 124 -710 0 -345 -71 -642 -225 -940 -76 -147 -115 -206 -219 -338
-258 -323 -590 -550 -986 -674 -217 -67 -378 -91 -619 -91 -317 0 -613 68
-903 209 -95 46 -252 141 -303 182 -210 173 -274 236 -388 378 -127 161 -236
353 -312 551 -146 382 -170 830 -64 1236 195 751 807 1331 1569 1488 125 26
338 45 425 39 17 -1 81 -5 143 -7z"/>
<path d="M3107 4998 c-2 -18 -5 -101 -6 -185 l-2 -152 25 -7 c13 -3 35 -4 47
-2 23 3 24 8 27 81 2 61 6 77 18 77 12 0 15 -13 14 -67 -1 -38 -1 -74 -1 -80
1 -8 17 -13 44 -13 l44 0 7 181 c3 100 5 184 2 186 -2 2 -17 5 -32 5 -66 1
-64 3 -64 -67 0 -51 -3 -65 -15 -65 -12 0 -15 14 -15 70 l0 70 -44 0 c-42 0
-44 -2 -49 -32z"/>
<path d="M2793 4982 c-75 -16 -80 -22 -64 -65 8 -19 15 -23 35 -20 20 4 26 1
31 -18 3 -13 16 -75 29 -137 13 -63 27 -116 29 -119 3 -3 24 -2 46 2 49 8 49
6 16 159 -30 139 -30 146 -6 146 25 0 30 9 24 43 -6 32 -27 34 -140 9z"/>
<path d="M3515 4968 c-3 -13 -21 -87 -40 -166 -19 -79 -35 -149 -35 -156 0 -7
31 -20 76 -30 83 -20 94 -16 94 32 0 17 -7 24 -31 29 -28 5 -30 9 -25 36 3 16
6 34 6 40 0 5 13 7 30 4 32 -7 34 -5 44 34 5 23 2 28 -19 33 -25 6 -32 27 -19
60 4 11 14 13 34 10 30 -6 34 -3 44 37 6 26 4 27 -65 43 -90 20 -88 20 -94 -6z"/>
<path d="M2503 4888 c-29 -14 -29 -17 2 -80 37 -76 31 -79 -28 -14 l-53 59
-32 -17 c-18 -9 -32 -21 -32 -27 0 -10 85 -199 126 -282 l24 -47 33 16 c17 9
33 18 35 19 2 2 -8 26 -22 54 -38 75 -32 81 22 22 l47 -53 38 15 c20 9 37 20
37 24 -1 23 -149 318 -161 320 -8 1 -24 -3 -36 -9z"/>
<path d="M3779 4734 c-41 -86 -75 -160 -77 -165 -2 -4 15 -17 36 -28 l40 -20
14 22 c8 12 25 43 38 70 14 26 28 47 32 47 15 0 7 -32 -23 -91 -17 -34 -29
-62 -27 -63 2 0 17 -9 35 -18 17 -10 34 -18 37 -18 4 0 22 32 41 71 27 56 32
76 25 95 -8 20 -6 24 8 24 19 0 59 54 63 85 7 51 -10 74 -81 110 -38 19 -73
35 -78 35 -5 0 -42 -70 -83 -156z m154 50 c8 -9 -21 -64 -33 -64 -13 0 -13 13
2 45 11 25 19 30 31 19z"/>
<path d="M2102 4649 c-29 -22 -52 -43 -52 -46 0 -6 4 -14 110 -190 40 -68 77
-123 81 -123 5 0 23 13 41 29 32 28 32 29 15 55 -16 24 -16 27 -2 32 9 4 24
-1 34 -10 10 -9 22 -16 27 -16 11 0 64 45 64 54 0 6 -168 169 -230 224 l-36
30 -52 -39z m152 -181 c-10 -16 -24 -7 -49 32 -35 56 -31 60 15 15 21 -21 37
-42 34 -47z"/>
<path d="M4200 4683 c0 -5 -47 -66 -105 -138 -57 -71 -104 -133 -105 -137 0
-11 110 -98 125 -98 7 0 20 11 29 25 16 24 16 26 -10 48 l-26 23 24 28 c21 25
27 27 45 17 30 -15 36 -14 51 10 12 18 11 24 -6 43 -20 21 -20 21 0 46 19 24
21 24 49 8 28 -16 29 -16 49 11 l20 28 -59 47 c-56 44 -81 55 -81 39z"/>
<path d="M2975 4431 c-109 -20 -218 -54 -322 -101 -59 -27 -159 -84 -173 -100
-3 -3 -23 -17 -45 -33 -22 -15 -71 -56 -110 -92 -38 -36 -78 -68 -87 -71 -9
-3 -15 -11 -12 -17 7 -20 -37 -54 -86 -67 -71 -18 -128 -56 -150 -100 -25 -49
-25 -61 0 -90 28 -32 25 -55 -10 -91 -16 -17 -44 -69 -61 -115 -17 -46 -33
-84 -35 -84 -2 0 -26 9 -54 20 -69 27 -85 24 -30 -4 48 -25 97 -72 87 -82 -3
-3 -61 6 -128 20 -67 15 -124 25 -126 22 -2 -2 19 -9 46 -16 28 -7 53 -15 55
-19 3 -4 -34 -20 -82 -36 -80 -27 -141 -57 -82 -41 14 4 50 14 80 23 60 16
183 14 202 -5 7 -7 -3 -17 -33 -33 l-44 -23 38 -10 c44 -11 47 -22 10 -38 -27
-11 -27 -12 -5 -15 27 -5 28 -20 5 -46 -18 -19 -17 -19 15 -12 31 6 32 5 34
-27 2 -62 3 -63 25 -61 24 3 29 -6 38 -82 20 -151 81 -326 161 -466 48 -84 82
-124 148 -175 40 -31 40 -32 28 -71 -7 -22 -12 -61 -12 -85 0 -38 5 -51 31
-76 37 -36 83 -49 227 -63 127 -13 180 -7 239 26 41 23 48 24 125 15 45 -5 83
-8 85 -6 2 2 -15 15 -39 29 -75 46 -72 42 -56 66 27 38 90 81 119 81 37 0 58
-24 93 -107 l28 -69 77 8 c261 28 524 160 731 368 193 192 281 358 325 614 8
49 15 112 15 140 0 80 16 88 28 14 27 -156 34 -262 23 -363 -12 -105 -43 -249
-66 -300 -7 -16 -16 -41 -20 -55 -9 -31 -76 -163 -107 -210 -15 -24 -17 -31
-6 -22 20 16 128 147 128 155 0 3 17 32 39 64 36 55 58 97 103 202 45 105 87
331 88 466 0 117 -31 281 -82 427 l-30 87 21 27 c32 41 27 61 -16 73 -21 6
-43 11 -50 11 -13 0 -73 82 -73 99 0 6 -4 11 -8 11 -4 0 -22 19 -40 42 -170
221 -439 393 -709 453 -176 38 -349 44 -508 16z m176 -151 c109 -11 256 -45
347 -80 96 -37 231 -111 270 -147 7 -7 17 -13 20 -13 4 0 21 -12 38 -27 17
-16 59 -53 93 -83 33 -30 61 -58 61 -63 0 -31 -214 43 -315 108 -154 100 -356
181 -520 210 -49 8 -162 18 -249 22 l-159 6 29 23 c32 26 53 32 152 44 98 11
119 11 233 0z m480 -423 c106 -36 253 -75 363 -97 104 -21 44 -28 -84 -10
-387 56 -370 52 -406 86 -17 14 -49 28 -87 35 -73 15 -107 45 -107 94 l0 33
108 -53 c59 -29 155 -69 213 -88z m-816 90 c-5 -18 7 -34 66 -87 40 -35 68
-65 62 -67 -5 -2 -60 15 -122 37 -63 22 -115 40 -117 40 -2 0 -4 8 -4 18 0 22
35 57 70 71 41 16 51 13 45 -12z m214 -56 c10 -6 11 -20 6 -52 -7 -40 -9 -41
-15 -18 -4 14 -12 34 -18 46 -16 29 -1 42 27 24z m-637 -42 c8 -39 4 -45 -36
-55 -22 -5 -27 -4 -23 7 3 8 11 31 18 52 15 45 31 43 41 -4z m-208 -78 c43
-17 80 -32 83 -35 3 -2 -5 -9 -16 -15 -23 -13 -42 -5 -128 49 -59 38 -39 38
61 1z m725 -9 c9 -4 -20 -9 -64 -12 -58 -4 -97 -14 -142 -34 -39 -18 -69 -26
-82 -21 -30 9 -26 25 7 25 15 0 61 14 102 30 74 30 127 33 179 12z m-833 -37
c4 -18 11 -24 23 -21 9 3 23 1 31 -4 13 -9 13 -11 0 -20 -8 -5 -23 -10 -32
-10 -20 0 -48 37 -48 62 0 27 19 22 26 -7z m564 -91 c0 -2 -11 -4 -25 -4 -24
0 -105 62 -105 81 0 4 29 -10 65 -32 36 -23 65 -43 65 -45z m240 61 c0 -21
-35 -53 -66 -61 -32 -8 -94 19 -94 42 0 13 5 13 34 -5 45 -28 56 -26 56 9 0
28 3 30 35 30 24 0 35 -5 35 -15z m870 -54 c85 -40 178 -49 279 -27 41 9 76
14 78 12 9 -9 -69 -36 -130 -46 -110 -17 -246 25 -314 98 -30 32 -30 42 0 14
12 -11 51 -34 87 -51z m-824 -37 c-6 -15 -86 -21 -86 -6 0 4 19 17 43 29 34
17 43 18 45 6 2 -8 1 -21 -2 -29z m-361 -8 c71 -28 76 -31 48 -34 -49 -5 -111
16 -146 49 -30 29 -31 30 -7 23 14 -4 61 -21 105 -38z m1108 -31 c12 -16 33
-52 47 -80 l25 -50 110 -17 c61 -9 118 -17 128 -17 34 -2 16 27 -38 60 -30 18
-55 39 -55 46 0 7 3 13 6 13 10 0 249 -62 253 -65 2 -2 -13 -12 -33 -21 -20
-10 -36 -22 -36 -27 0 -6 11 -25 25 -43 14 -18 25 -35 25 -37 0 -2 -37 -4 -82
-4 -46 0 -108 -3 -139 -8 -52 -7 -64 -4 -140 30 -174 77 -187 79 -156 31 27
-41 57 -143 57 -194 0 -27 -9 -69 -19 -93 -12 -28 -23 -88 -29 -162 -6 -65
-13 -121 -15 -124 -10 -9 -26 7 -43 42 -20 42 -51 47 -60 10 -7 -29 4 -155 14
-155 4 0 40 18 81 41 40 22 76 38 78 35 5 -4 -159 -215 -168 -215 -3 -1 -11
29 -18 67 -6 37 -20 114 -31 172 -11 58 -20 106 -20 107 0 1 21 5 48 8 26 4
62 11 80 17 39 12 42 37 11 124 -18 52 -20 74 -15 182 4 87 1 144 -9 199 -8
42 -13 78 -11 80 2 3 26 -12 54 -31 84 -61 92 -46 32 55 -22 37 -40 73 -40 79
0 17 59 -21 83 -55z m-658 -77 c-92 -18 -143 -22 -133 -12 10 9 202 41 213 35
6 -3 -30 -13 -80 -23z m-750 -3 c14 -13 25 -33 25 -45 0 -18 -6 -20 -66 -20
-41 0 -63 -4 -59 -10 3 -5 19 -10 36 -10 36 0 36 -9 4 -61 -32 -50 -46 -55
-98 -39 -57 18 -87 37 -87 57 0 9 -11 31 -25 49 -29 38 -30 47 -9 69 11 10 26
14 47 10 18 -3 55 1 82 9 79 22 122 20 150 -9z m785 -74 c-18 -10 -220 -34
-227 -27 -3 2 15 7 39 10 23 4 68 10 98 15 76 12 109 13 90 2z m1214 -57 c10
-25 -1 -29 -14 -5 -6 12 -7 21 -1 21 5 0 12 -7 15 -16z m-474 -195 c13 -47 6
-89 -23 -141 -24 -45 -41 -49 -33 -10 2 15 10 66 16 114 7 49 16 85 21 83 5
-3 13 -24 19 -46z m-1475 -21 c22 -10 36 -47 18 -49 -40 -3 -151 -4 -160 -1
-14 4 0 40 21 54 17 12 92 9 121 -4z m165 -33 c16 -9 32 -26 36 -40 7 -29 -33
-158 -49 -152 -10 3 -66 167 -67 195 0 17 45 15 80 -3z m368 -18 c74 -49 92
-139 53 -268 -29 -97 -69 -267 -76 -329 -10 -80 -29 -110 -69 -110 -24 0 -126
51 -126 63 0 5 8 6 18 2 9 -4 40 -10 69 -12 46 -5 53 -3 66 18 8 13 20 51 25
84 6 33 23 123 37 199 51 285 34 330 -130 351 -27 3 -63 9 -80 12 l-30 7 35 7
c19 4 65 6 102 5 53 -3 77 -9 106 -29z m-724 -54 c9 -59 7 -125 -4 -118 -5 3
-24 26 -41 51 l-31 46 28 29 c15 16 31 29 35 29 3 0 9 -17 13 -37z m1007 -236
c-58 -116 -84 -128 -61 -30 7 32 13 93 12 136 -1 87 8 121 41 147 l22 18 9
-104 8 -105 -31 -62z m-390 208 l30 -16 -27 -32 c-26 -31 -27 -33 -21 -142 9
-168 -15 -285 -58 -285 -20 0 -38 27 -71 104 -21 49 -35 70 -46 68 -13 -2 -13
4 3 50 9 29 20 88 24 132 6 69 11 84 35 108 33 33 83 37 131 13z m-452 -21
c33 -27 55 -84 49 -124 -3 -22 -10 -15 -52 49 -26 41 -50 80 -53 87 -9 23 23
16 56 -12z m172 -106 l26 -32 17 32 c9 18 21 32 26 32 14 0 12 -34 -9 -130
-13 -55 -16 -89 -9 -97 6 -7 5 -26 -2 -52 l-11 -41 -86 0 -85 0 16 23 c35 47
40 75 44 212 l4 140 21 -28 c12 -15 34 -42 48 -59z m952 -105 c8 -64 -1 -122
-24 -160 -19 -31 -21 -40 -11 -66 10 -26 8 -36 -11 -70 -12 -22 -39 -54 -60
-71 -38 -30 -42 -31 -170 -36 -171 -7 -196 -19 -324 -144 -113 -111 -114 -111
-301 -103 -122 5 -182 19 -182 43 0 17 70 18 205 4 135 -14 152 -7 260 105 50
52 102 99 116 104 15 5 60 9 101 9 142 -2 241 38 279 114 11 22 27 78 34 122
7 45 18 93 24 109 6 15 15 38 21 52 14 38 37 31 43 -12z m-1134 -180 c33 -39
39 -71 19 -91 -20 -20 -27 -14 -44 46 -9 31 -19 63 -21 70 -10 25 16 11 46
-25z m305 -15 c13 -29 22 -56 19 -60 -2 -5 -22 -8 -44 -8 -29 0 -39 4 -39 16
0 30 23 104 32 104 5 0 20 -24 32 -52z m616 26 c0 -9 -91 -118 -111 -132 -11
-7 -31 -12 -45 -10 -25 3 -25 4 23 63 32 39 61 64 83 72 40 14 50 15 50 7z
m-736 -68 c-6 -17 -41 -24 -83 -18 -62 9 -29 27 56 31 24 1 31 -3 27 -13z m76
-192 c-41 -13 -89 -24 -105 -24 -31 0 -75 24 -75 40 0 11 99 17 190 11 l65 -4
-75 -23z"/>
<path d="M1853 4402 c-48 -48 -85 -93 -81 -97 2 -1 37 -31 78 -65 41 -34 97
-80 124 -103 85 -72 81 -71 110 -32 14 18 26 37 26 42 -1 4 -23 25 -50 46 -53
41 -58 51 -36 76 26 30 27 57 5 86 -29 36 -98 85 -120 85 -10 0 -35 -17 -56
-38z m85 -68 c22 -15 30 -44 13 -44 -13 0 -61 40 -61 51 0 14 23 11 48 -7z"/>
<path d="M4413 4420 c-45 -27 -56 -54 -54 -133 2 -71 -13 -107 -46 -107 -19 0
-16 24 7 45 25 23 25 28 -4 61 -22 27 -24 27 -48 12 -31 -20 -52 -70 -44 -102
8 -34 50 -81 85 -95 36 -15 75 2 115 49 23 28 26 40 26 110 0 68 3 81 19 90
26 13 41 -8 18 -25 -10 -7 -17 -15 -17 -19 0 -12 43 -66 53 -66 16 0 57 53 57
73 0 32 -31 86 -60 107 -35 25 -66 25 -107 0z"/>
<path d="M1650 2700 c-100 -37 -154 -63 -153 -72 3 -23 41 -119 58 -144 21
-32 48 -31 148 7 173 64 184 73 167 140 -16 67 -42 129 -53 128 -7 0 -82 -27
-167 -59z m148 -62 c-6 -17 -156 -77 -192 -78 -44 0 -23 14 79 54 98 38 119
42 113 24z"/>
<path d="M4574 2682 c-18 -11 -54 -84 -54 -109 0 -37 11 -53 51 -73 52 -27 77
-25 132 10 47 30 71 35 101 24 18 -7 22 -34 5 -34 -6 0 -20 5 -31 11 -18 10
-25 8 -40 -11 -36 -45 -11 -80 58 -80 57 0 111 99 86 155 -14 31 -62 56 -111
58 -28 1 -49 -7 -83 -32 -36 -26 -53 -32 -72 -27 -37 9 -35 40 2 31 24 -5 30
-2 40 20 16 35 15 52 -4 59 -21 8 -67 7 -80 -2z"/>
<path d="M1763 2427 c-78 -45 -143 -85 -143 -89 0 -16 72 -128 84 -128 7 0 21
6 31 14 18 13 18 16 5 41 -13 25 -13 28 10 46 32 24 47 24 55 -1 7 -23 18 -25
46 -9 16 8 18 17 14 42 -5 26 -2 35 16 46 20 12 24 11 41 -12 18 -24 20 -25
48 -10 17 8 30 16 30 18 0 15 -73 125 -83 124 -7 0 -76 -37 -154 -82z"/>
<path d="M4444 2432 c-31 -26 -44 -56 -44 -100 0 -46 5 -52 124 -126 118 -74
161 -74 205 -2 26 41 27 86 4 113 -20 22 -121 91 -170 117 -41 21 -92 20 -119
-2z m149 -126 c81 -53 104 -77 75 -75 -20 0 -191 114 -196 129 -8 22 28 6 121
-54z"/>
<path d="M4314 2233 c-16 -8 -47 -35 -69 -60 l-40 -45 66 -62 c74 -68 144
-132 176 -160 22 -18 22 -18 47 9 15 16 26 33 26 39 0 6 -21 30 -47 53 l-48
41 23 31 c32 44 28 72 -18 115 -53 49 -79 58 -116 39z m58 -92 c18 -15 25 -41
11 -41 -13 0 -63 47 -63 58 0 14 27 5 52 -17z"/>
<path d="M2062 2081 c-50 -54 -103 -113 -119 -131 l-27 -33 39 -34 c88 -76
104 -85 129 -79 14 3 63 49 110 102 105 118 108 132 39 205 -75 80 -68 81
-171 -30z m132 -20 c6 -9 -113 -147 -140 -164 -7 -4 -15 -3 -18 2 -5 8 132
168 146 170 4 1 9 -3 12 -8z"/>
<path d="M4072 2018 c-34 -24 -62 -47 -62 -52 0 -17 201 -276 213 -276 7 1 25
12 42 25 l29 24 -47 60 c-51 67 -53 71 -33 71 7 0 32 -25 55 -55 23 -30 45
-55 49 -55 4 1 20 11 36 24 l29 24 -47 61 c-34 44 -54 61 -71 61 -18 0 -22 4
-18 19 11 41 -47 111 -92 111 -12 0 -49 -19 -83 -42z m88 -63 c18 -34 3 -45
-20 -15 -23 30 -25 40 -7 40 8 0 20 -11 27 -25z"/>
<path d="M2261 1855 c-62 -74 -110 -138 -107 -142 2 -5 20 -17 40 -27 l35 -19
20 24 c15 18 22 21 31 13 9 -9 9 -17 0 -35 -11 -20 -10 -25 16 -46 16 -13 35
-22 42 -21 11 2 101 189 143 295 7 20 2 27 -44 58 -28 19 -55 35 -58 35 -3 0
-57 -61 -118 -135z m89 -54 c-19 -39 -40 -54 -40 -29 0 14 50 81 57 75 2 -3
-5 -23 -17 -46z"/>
<path d="M3853 1890 c-37 -22 -53 -48 -53 -85 0 -32 83 -199 115 -231 56 -56
175 -3 175 78 0 37 -93 222 -122 242 -30 22 -76 20 -115 -4z m105 -155 c28
-58 52 -107 52 -110 0 -3 -6 -5 -13 -5 -10 0 -117 197 -117 215 0 3 6 5 13 5
7 0 36 -47 65 -105z"/>
<path d="M2551 1843 c-7 -16 -36 -84 -63 -153 -28 -69 -52 -128 -55 -132 -4
-8 50 -38 70 -38 8 0 26 26 40 58 l26 57 -6 -50 c-11 -85 -11 -86 30 -102 21
-9 40 -14 42 -11 3 2 9 48 15 102 10 86 15 102 40 129 53 59 70 80 70 87 0 8
-46 30 -63 30 -7 0 -29 -19 -50 -42 -40 -44 -41 -41 -13 24 l16 37 -29 16
c-42 21 -56 19 -70 -12z"/>
<path d="M3571 1771 c-38 -36 -40 -66 -7 -177 26 -87 49 -138 67 -150 18 -11
94 -7 118 6 38 20 59 66 51 111 -4 22 -10 42 -13 46 -3 3 -23 1 -44 -4 -39 -9
-41 -13 -32 -72 2 -13 -1 -26 -8 -28 -12 -4 -73 175 -73 216 0 35 22 19 38
-27 15 -47 18 -48 67 -28 l34 15 -15 45 c-20 58 -45 76 -105 76 -38 0 -53 -6
-78 -29z"/>
<path d="M2829 1743 c-44 -110 -107 -303 -101 -306 4 -3 25 -8 47 -11 38 -7
41 -5 52 24 14 37 33 31 33 -10 0 -26 5 -31 41 -40 23 -6 43 -10 45 -8 3 4 24
274 24 324 0 29 -4 33 -44 43 -69 17 -85 14 -97 -16z m54 -150 c-4 -36 -10
-53 -19 -53 -8 0 -14 5 -14 12 0 14 32 100 35 96 2 -2 0 -27 -2 -55z"/>
<path d="M3062 1731 c-6 -3 -11 -80 -13 -179 l-4 -172 48 0 47 0 0 75 c0 60 3
75 15 75 12 0 15 -16 15 -80 l0 -80 40 0 40 0 0 83 c0 53 -5 88 -12 95 -10 10
-10 15 1 21 7 5 16 29 18 55 7 58 -14 93 -59 100 -65 10 -126 13 -136 7z m108
-95 c0 -19 -4 -38 -10 -41 -6 -4 -10 10 -10 34 0 23 5 41 10 41 6 0 10 -15 10
-34z"/>
</g>
</svg>
